
        <svg xmlns="http://www.w3.org/2000/svg" xmlns:xlink="http://www.w3.org/1999/xlink" version="1.1" width="3171.4285714285716" 
        height="2527.810344975005" viewBox="0 0 3171.4285714285716 2527.810344975005">
			<rect fill="#f6f6f6" width="3171.4285714285716" height="2527.810344975005"/>
			<g transform="scale(8.571428571428571) translate(10, 10)">
				<defs id="SvgjsDefs1945"><linearGradient id="SvgjsLinearGradient1952"><stop id="SvgjsStop1953" stop-color="#006838" offset="0"></stop><stop id="SvgjsStop1954" stop-color="#96cf24" offset="1"></stop></linearGradient></defs><g id="SvgjsG1946" featureKey="symbolFeature-0" transform="matrix(1.3799040703896377,0,0,1.3799040703896377,106.08818245301428,0)" fill="url(#SvgjsLinearGradient1952)"><path xmlns="http://www.w3.org/2000/svg" fill-rule="evenodd" clip-rule="evenodd" d="M34.299,89.102C18.86,84.527-25.674,64.976,24.795,0  c27.291,18.521,37.807,34.817,39.754,48.283c-13.054,4.675-22.041,13.764-20.921,30.208c-7.11-16.909-12.688-40.295-15.081-54.876  C27.347,40.648,29.86,70.944,34.299,89.102z"></path><path xmlns="http://www.w3.org/2000/svg" fill-rule="evenodd" clip-rule="evenodd" d="M51.772,93.184C48.014,82.738,40.207,48.778,98.54,50.65  c1.712,53.348-26.544,51.379-39.376,47.778c5.312-10.34,12.15-19.672,20.803-27.551C69.352,76.754,59.899,84.209,51.772,93.184z"></path></g><g id="SvgjsG1947" featureKey="nameFeature-0" transform="matrix(1.2521465861351362,0,0,1.2521465861351362,-2.0034345676697187,148.48368666185698)" fill="#4d4d4d"><path d="M1.6 23.16 c0 -11.16 0 -15.56 6 -15.56 c4.56 0 5.64 2.52 5.92 8.56 l-3.72 0 c-0.16 -4.36 -0.6 -5.36 -2.2 -5.36 c-2.24 0 -2.24 1.96 -2.24 12.36 c0 11.56 0 13.24 2.24 13.24 c2.12 0 2.24 -1.52 2.24 -10 l-2.64 0 l0 -3.2 l6.4 0 l0 1.56 c0 11.2 0 15.64 -6 15.64 s-6 -4.44 -6 -17.24 z M18.400000000000002 23.16 c0 -11.16 0.24 -15.56 6.24 -15.56 s6.24 4.4 6.24 15.56 c0 12.8 -0.24 17.24 -6.24 17.24 s-6.24 -4.44 -6.24 -17.24 z M22.4 23.16 c0 11.56 0 13.24 2.24 13.24 s2.24 -1.68 2.24 -13.24 c0 -10.4 0 -12.36 -2.24 -12.36 s-2.24 1.96 -2.24 12.36 z M36.080000000000005 23.16 c0 -11.16 0.24 -15.56 6.24 -15.56 s6.24 4.4 6.24 15.56 c0 12.8 -0.24 17.24 -6.24 17.24 s-6.24 -4.44 -6.24 -17.24 z M40.080000000000005 23.16 c0 11.56 0 13.24 2.24 13.24 s2.24 -1.68 2.24 -13.24 c0 -10.4 0 -12.36 -2.24 -12.36 s-2.24 1.96 -2.24 12.36 z M53.760000000000005 23.16 c0 -11.16 0 -15.56 6 -15.56 c4.56 0 5.64 2.52 5.92 8.56 l-3.72 0 c-0.16 -4.36 -0.6 -5.36 -2.2 -5.36 c-2.24 0 -2.24 1.96 -2.24 12.36 c0 11.56 0 13.24 2.24 13.24 c2.12 0 2.24 -1.52 2.24 -10 l-2.64 0 l0 -3.2 l6.4 0 l0 1.56 c0 11.2 0 15.64 -6 15.64 s-6 -4.44 -6 -17.24 z M70.56 23.16 c0 -11.16 0.24 -15.56 6.24 -15.56 s6.24 4.4 6.24 15.56 c0 12.8 -0.24 17.24 -6.24 17.24 s-6.24 -4.44 -6.24 -17.24 z M74.56 23.16 c0 11.56 0 13.24 2.24 13.24 s2.24 -1.68 2.24 -13.24 c0 -10.4 0 -12.36 -2.24 -12.36 s-2.24 1.96 -2.24 12.36 z M88.64000000000001 40 l0 -32 l3.6 0 l5.24 19.6 l-0.04 -0.4 l0 -19.2 l4 0 l0 32 l-3.6 0 l-5.24 -17.6 l0.04 0.4 l0 17.2 l-4 0 z M107.04 23.16 c0 -11.16 0 -15.56 6 -15.56 c4.56 0 5.64 2.52 5.92 8.56 l-3.72 0 c-0.16 -4.36 -0.6 -5.36 -2.2 -5.36 c-2.24 0 -2.24 1.96 -2.24 12.36 c0 11.56 0 13.24 2.24 13.24 c2.12 0 2.24 -1.52 2.24 -10 l-2.64 0 l0 -3.2 l6.4 0 l0 1.56 c0 11.2 0 15.64 -6 15.64 s-6 -4.44 -6 -17.24 z M135.04000000000002 40 l0 -32 l4 0 l0 32 l-4 0 z M145.04000000000002 40 l0 -32 l6.48 0 c4.12 0 5.52 2.52 5.52 7.36 c0 4.36 -0.52 6.84 -1.76 8.04 l0 0.24 c1.04 0.36 1.36 2.24 1.76 6.92 l0.8 9.44 l-4 0 l-0.52 -9.44 c-0.28 -4.76 -1 -5.76 -2.2 -5.76 l-2.08 0 l0 15.2 l-4 0 z M149.04000000000002 21.6 l2.48 0 c1.4 0 1.8 -1.4 1.8 -6.24 c0 -3.16 -0.6 -4.16 -1.8 -4.16 l-2.48 0 l0 10.4 z M163.04000000000002 40 l0 -32 l6.48 0 c4.12 0 5.52 2.52 5.52 7.36 c0 4.36 -0.52 6.84 -1.76 8.04 l0 0.24 c1.04 0.36 1.36 2.24 1.76 6.92 l0.8 9.44 l-4 0 l-0.52 -9.44 c-0.28 -4.76 -1 -5.76 -2.2 -5.76 l-2.08 0 l0 15.2 l-4 0 z M167.04000000000002 21.6 l2.48 0 c1.4 0 1.8 -1.4 1.8 -6.24 c0 -3.16 -0.6 -4.16 -1.8 -4.16 l-2.48 0 l0 10.4 z M181.04000000000002 40 l0 -32 l4 0 l0 32 l-4 0 z M190.64000000000001 23.16 c0 -11.16 0 -15.56 6 -15.56 c4.56 0 5.64 2.52 5.92 8.56 l-3.72 0 c-0.16 -4.36 -0.6 -5.36 -2.2 -5.36 c-2.24 0 -2.24 1.96 -2.24 12.36 c0 11.56 0 13.24 2.24 13.24 c2.12 0 2.24 -1.52 2.24 -10 l-2.64 0 l0 -3.2 l6.4 0 l0 1.56 c0 11.2 0 15.64 -6 15.64 s-6 -4.44 -6 -17.24 z M207.84000000000003 40 l0 -16.8 c0 -11.16 0 -15.56 6 -15.56 s6 4.4 6 15.56 l0 16.8 l-4 0 l0 -9.2 l-4 0 l0 9.2 l-4 0 z M211.84000000000003 27.6 l4 0 l0 -4.4 c0 -10.4 0 -12.36 -2 -12.36 s-2 1.96 -2 12.36 l0 4.4 z M224.24000000000004 11.600000000000001 l0 -3.6 l12 0 l0 3.6 l-4 0 l0 28.4 l-4 0 l0 -28.4 l-4 0 z M240.64000000000004 40 l0 -32 l4 0 l0 32 l-4 0 z M250.24000000000004 23.16 c0 -11.16 0.24 -15.56 6.24 -15.56 s6.24 4.4 6.24 15.56 c0 12.8 -0.24 17.24 -6.24 17.24 s-6.24 -4.44 -6.24 -17.24 z M254.24000000000004 23.16 c0 11.56 0 13.24 2.24 13.24 s2.24 -1.68 2.24 -13.24 c0 -10.4 0 -12.36 -2.24 -12.36 s-2.24 1.96 -2.24 12.36 z M268.32000000000005 40 l0 -32 l3.6 0 l5.24 19.6 l-0.04 -0.4 l0 -19.2 l4 0 l0 32 l-3.6 0 l-5.24 -17.6 l0.04 0.4 l0 17.2 l-4 0 z"></path></g><g id="SvgjsG1948" featureKey="nameFeature-1" transform="matrix(2.007341126260703,0,0,2.007341126260703,-4.014682252521406,193.74421050337816)" fill="#4d4d4d"><path d="M2 30.4 c0 -2.72 0.72 -5.04 2.72 -6.76 c-1.48 -1.32 -2.72 -3.08 -2.72 -6.44 c0 -5 0 -9.6 6 -9.6 s6 4.6 6 8.4 l-4.04 0 c0 -2.16 -0.04 -5.2 -1.96 -5.2 c-1.84 0 -1.96 3.04 -1.96 6.4 c0 2 0.28 4.04 2 4.04 l7.56 0 l0 3.2 l-2.4 0 c0.64 1 0.8 2.48 0.8 4.08 l0 1.88 c0 5.96 -0.2 10 -5.96 10 l-0.04 0 c-5.84 0 -6 -4.04 -6 -10 z M6.08 30.4 c0 3.6 -0.12 5.96 1.92 6 c1.96 -0.04 1.92 -2.32 1.92 -6 l0 -3.92 c0 -1.08 -0.56 -1.84 -1.48 -1.84 c-2.12 0 -2.36 3.2 -2.36 5.76 z M32.400000000000006 40 l0 -32 l4 0 l0 28 l5.2 0 l0 4 l-9.2 0 z M46 40 l0 -16.8 c0 -11.16 0 -15.56 6 -15.56 s6 4.4 6 15.56 l0 16.8 l-4 0 l0 -9.2 l-4 0 l0 9.2 l-4 0 z M50 27.6 l4 0 l0 -4.4 c0 -10.4 0 -12.36 -2 -12.36 s-2 1.96 -2 12.36 l0 4.4 z M64 40 l0 -32 l3.6 0 l5.24 19.6 l-0.04 -0.4 l0 -19.2 l4 0 l0 32 l-3.6 0 l-5.24 -17.6 l0.04 0.4 l0 17.2 l-4 0 z M82.8 40 l0 -32 l6 0 c6 0 6 4.4 6 15.16 c0 12.4 0 16.84 -6 16.84 l-6 0 z M86.8 36 l2 0 c2.24 0 2.24 -1.68 2.24 -12.84 c0 -10 0 -11.96 -2.24 -11.96 l-2 0 l0 24.8 z M99.60000000000001 30.240000000000002 l4.04 0 c0.08 5.16 0.48 6.16 1.92 6.16 c1.96 0 1.96 -1.64 1.96 -6 c0 -6.4 -7.92 -4.68 -7.92 -13.2 c0 -5 0 -9.6 6 -9.6 c4.44 0 5.64 2.52 5.92 8.56 l-4 0 c-0.16 -4.36 -0.64 -5.36 -1.92 -5.36 c-1.96 0 -1.96 2.16 -1.96 6.4 c0 6.2 7.96 4 7.96 13.2 c0 5.6 0 10 -6.04 10 c-4.64 0 -5.72 -2.76 -5.96 -10.16 z M116.4 23.16 c0 -11.16 0 -15.56 5.6 -15.56 c4.12 0 5.24 2.52 5.52 8.56 l-3.72 0 c-0.16 -4.36 -0.6 -5.36 -1.8 -5.36 c-1.84 0 -1.84 1.96 -1.84 12.36 c0 11.56 0 13.24 1.84 13.24 c1.32 0 1.72 -1 1.8 -6.16 l3.76 0 c-0.24 7.4 -1.24 10.16 -5.56 10.16 c-5.6 0 -5.6 -4.44 -5.6 -17.24 z M132.36 40 l0 -16.8 c0 -11.16 0 -15.56 6 -15.56 s6 4.4 6 15.56 l0 16.8 l-4 0 l0 -9.2 l-4 0 l0 9.2 l-4 0 z M136.36 27.6 l4 0 l0 -4.4 c0 -10.4 0 -12.36 -2 -12.36 s-2 1.96 -2 12.36 l0 4.4 z M150.36 40 l0 -32 l6.48 0 c4.12 0 5.2 2.52 5.52 8.56 l0 1.28 c-0.32 6.04 -1.4 8.56 -5.52 8.56 l-2.48 0 l0 13.6 l-4 0 z M154.36 23.2 l2.48 0 c1.2 0 1.64 -1 1.8 -5.36 l0 -1.28 c-0.16 -4.36 -0.6 -5.36 -1.8 -5.36 l-2.48 0 l0 12 z M167.16000000000003 40 l0 -32 l9.2 0 l0 3.2 l-5.2 0 l0 10.4 l4.4 0 l0 3.2 l-4.4 0 l0 11.2 l5.2 0 l0 4 l-9.2 0 z"></path></g>
			</g>
		</svg>
	